<svg width="100" height="96" viewBox="0 0 100 96" fill="none" xmlns="http://www.w3.org/2000/svg">
<path d="M34.8102 36.6912C35.2225 36.5714 35.6538 36.8086 35.7737 37.2209C35.8934 37.6332 35.6563 38.0647 35.244 38.1844C34.2515 38.4728 33.1649 38.8635 32.3191 39.1854C31.8979 39.3457 31.5397 39.4878 31.2873 39.5896C31.1611 39.6405 31.0614 39.6813 30.9936 39.7092C30.9597 39.7231 30.9337 39.7339 30.9165 39.7411C30.9079 39.7446 30.9014 39.7474 30.8972 39.7491C30.8951 39.75 30.8935 39.7506 30.8925 39.751C30.8921 39.7512 30.8917 39.7514 30.8915 39.7515L30.8913 39.7516C30.4953 39.9176 30.0397 39.7311 29.8738 39.3351C29.7078 38.9391 29.8942 38.4835 30.2902 38.3175L30.4968 38.8103C30.2966 38.3328 30.2904 38.318 30.2903 38.3175L30.2909 38.3172C30.2912 38.3171 30.2918 38.3168 30.2925 38.3166C30.2938 38.316 30.2957 38.3152 30.2982 38.3142C30.3031 38.3121 30.3103 38.3091 30.3197 38.3052C30.3385 38.2974 30.366 38.286 30.4015 38.2714C30.4726 38.2421 30.5758 38.2 30.7059 38.1475C30.9659 38.0427 31.3336 37.8968 31.766 37.7322C32.6275 37.4043 33.7589 36.9967 34.8102 36.6912Z" fill="url(#paint0_linear_64_62)"/>
<path d="M41.2434 26.9387C44.1443 24.1798 48.5356 21.4491 54.3547 21.7989L54.455 21.8055C58.6867 22.0962 61.3593 24.5623 62.9471 26.8974C63.7465 28.0729 64.2818 29.2284 64.6175 30.0886C64.7858 30.5197 64.9051 30.8795 64.9829 31.1342C65.0219 31.2616 65.0505 31.3629 65.0698 31.4341C65.0794 31.4696 65.0868 31.4977 65.0919 31.5177C65.0944 31.5276 65.0964 31.5356 65.0979 31.5415C65.0986 31.5444 65.0992 31.5469 65.0997 31.5488C65.0999 31.5498 65.1002 31.5506 65.1003 31.5513C65.1004 31.5516 65.1005 31.552 65.1005 31.5522C65.1002 31.5527 65.0823 31.5574 64.345 31.7354L65.1007 31.5529C65.2015 31.9703 64.9448 32.3903 64.5274 32.4911C64.11 32.5919 63.6899 32.3352 63.5892 31.9178C63.5891 31.9175 63.589 31.9171 63.5889 31.9166C63.5883 31.9142 63.5872 31.9097 63.5856 31.9033C63.5823 31.8904 63.5768 31.8695 63.5691 31.8414C63.5539 31.7851 63.5298 31.6995 63.4959 31.5886C63.428 31.3666 63.3215 31.0443 63.1691 30.6539C62.8637 29.8713 62.3786 28.8264 61.6614 27.7717C60.2509 25.6975 57.9844 23.6364 54.4315 23.3628L54.2613 23.3511C49.0222 23.0362 45.0315 25.4818 42.315 28.0654C40.9583 29.3558 39.9332 30.6688 39.2477 31.6592C38.9055 32.1536 38.6493 32.5658 38.4799 32.8518C38.3953 32.9948 38.3324 33.1061 38.2915 33.1802C38.271 33.2172 38.2561 33.245 38.2466 33.2628C38.2418 33.2716 38.2384 33.278 38.2364 33.2817C38.2354 33.2836 38.2347 33.285 38.2344 33.2855C38.2343 33.2858 38.2342 33.2859 38.2342 33.2859C38.0366 33.6667 37.5678 33.8155 37.1867 33.6182C36.8054 33.4207 36.6564 32.9515 36.8538 32.5703L37.4999 32.9048C36.8559 32.5713 36.854 32.5699 36.8541 32.5696C36.8542 32.5694 36.8544 32.569 36.8546 32.5686C36.855 32.5679 36.8555 32.5671 36.856 32.5661C36.8571 32.564 36.8585 32.5612 36.8603 32.5578C36.8639 32.551 36.8688 32.5416 36.8752 32.5297C36.888 32.5058 36.9064 32.4718 36.9304 32.4283C36.9785 32.3413 37.049 32.2166 37.142 32.0596C37.3278 31.7457 37.6037 31.3023 37.9692 30.7743C38.6991 29.7197 39.7915 28.3196 41.2434 26.9387Z" fill="url(#paint1_linear_64_62)"/>
<path d="M45.2615 33.9757C50.3899 33.1587 57.4901 32.8338 65.3678 34.809C65.7843 34.9135 66.0373 35.3358 65.9329 35.7523C65.8284 36.1688 65.4061 36.4217 64.9896 36.3173C57.364 34.4052 50.4831 34.7184 45.5062 35.5112C43.0188 35.9075 41.011 36.423 39.6291 36.8378C38.9383 37.0452 38.4044 37.2272 38.0457 37.3564C37.8664 37.4209 37.7309 37.4723 37.6415 37.507C37.5969 37.5243 37.5637 37.5374 37.5424 37.546C37.5318 37.5503 37.5241 37.5534 37.5194 37.5553C37.517 37.5562 37.5154 37.5569 37.5145 37.5573C37.5142 37.5574 37.514 37.5574 37.5139 37.5575C37.1173 37.7216 36.6627 37.5334 36.4984 37.1368C36.334 36.7402 36.5223 36.2853 36.919 36.1209L37.1988 36.796C36.9277 36.1419 36.9195 36.1215 36.9196 36.1207C36.9198 36.1206 36.9202 36.1205 36.9205 36.1203C36.9212 36.12 36.9222 36.1196 36.9233 36.1192C36.9255 36.1183 36.9284 36.1171 36.9321 36.1156C36.9395 36.1126 36.9499 36.1083 36.9632 36.103C36.99 36.0922 37.0288 36.0768 37.0791 36.0573C37.1798 36.0182 37.3272 35.9624 37.5188 35.8934C37.902 35.7554 38.4626 35.5644 39.182 35.3485C40.6206 34.9167 42.6964 34.3843 45.2615 33.9757Z" fill="url(#paint2_linear_64_62)"/>
<path d="M70.6028 37.1541C70.7374 36.7463 71.177 36.5249 71.5847 36.6595L71.3609 37.3374C71.5771 36.6829 71.5847 36.6604 71.5852 36.6597C71.5853 36.6597 71.5856 36.6598 71.5858 36.6599C71.5862 36.66 71.5867 36.6602 71.5873 36.6604C71.5885 36.6608 71.59 36.6613 71.5918 36.6619C71.5956 36.6631 71.6006 36.6648 71.607 36.667C71.6199 36.6714 71.6381 36.6776 71.6616 36.6858C71.7085 36.7021 71.7763 36.7261 71.8636 36.7582C72.0383 36.8224 72.2911 36.9187 72.6116 37.0499C73.2524 37.3122 74.1642 37.7144 75.2616 38.278C77.4553 39.4047 80.3978 41.1804 83.4018 43.7808C83.7264 44.0618 83.7618 44.5528 83.4808 44.8774C83.1998 45.2021 82.7088 45.2374 82.3841 44.9564C79.4931 42.4538 76.6597 40.7441 74.5511 39.6611C73.4974 39.1199 72.6265 38.7362 72.0224 38.4889C71.7204 38.3652 71.4853 38.2757 71.3275 38.2177C71.2487 38.1888 71.1892 38.1678 71.1503 38.1543C71.131 38.1475 71.1167 38.1426 71.1078 38.1395C71.1034 38.138 71.1002 38.137 71.0984 38.1364L71.0974 38.1359L71.0973 38.136L71.097 38.1358H71.0969C70.6894 38.0011 70.4682 37.5617 70.6028 37.1541Z" fill="url(#paint3_linear_64_62)"/>
<path d="M69.8304 44.8337C69.9569 44.4234 70.3921 44.1934 70.8024 44.3199L70.5733 45.0628C70.8024 44.3199 70.8027 44.3199 70.803 44.32C70.8031 44.32 70.8033 44.3201 70.8035 44.3202C70.804 44.3203 70.8045 44.3205 70.805 44.3206C70.8062 44.321 70.8076 44.3214 70.8093 44.322C70.8127 44.323 70.8172 44.3245 70.8227 44.3262C70.8338 44.3298 70.8492 44.3348 70.8687 44.3412C70.9078 44.3541 70.9636 44.3729 71.0348 44.3981C71.1773 44.4484 71.382 44.5241 71.64 44.6283C72.1558 44.8368 72.8855 45.1599 73.7575 45.6237C75.5006 46.5508 77.8186 48.0433 80.1338 50.3111C80.4406 50.6115 80.4457 51.1038 80.1452 51.4105C79.8448 51.7173 79.3525 51.7224 79.0458 51.4219C76.8566 49.2777 74.6664 47.8683 73.0273 46.9966C72.2082 46.5609 71.5284 46.2603 71.0574 46.07C70.822 45.9749 70.639 45.9074 70.5171 45.8644C70.4562 45.8428 70.4106 45.8274 70.3814 45.8178C70.3668 45.8129 70.3563 45.8096 70.3501 45.8076C70.347 45.8066 70.3449 45.8059 70.3439 45.8056V45.8055C69.9338 45.6789 69.7039 45.2439 69.8304 44.8337ZM70.3439 45.8055L70.3438 45.8056L70.3434 45.8055C70.3433 45.8055 70.3433 45.8054 70.3432 45.8054C70.3433 45.8054 70.3436 45.8054 70.3439 45.8055Z" fill="url(#paint4_linear_64_62)"/>
<path d="M68.1644 47.8614C68.2605 47.4429 68.6778 47.1816 69.0962 47.2777C69.5147 47.3739 69.776 47.7911 69.6798 48.2096L68.9221 48.0354C69.6645 48.2061 69.6794 48.2099 69.6796 48.2104C69.6796 48.2105 69.6795 48.211 69.6794 48.2114C69.6792 48.2122 69.6789 48.2132 69.6786 48.2143C69.6781 48.2166 69.6775 48.2196 69.6767 48.2232C69.6749 48.2304 69.6725 48.2404 69.6693 48.2532C69.6631 48.2786 69.6541 48.3148 69.642 48.3614C69.6178 48.4547 69.5812 48.5895 69.5306 48.7626C69.4294 49.1088 69.2716 49.6086 69.0422 50.2363C68.5836 51.4915 67.8383 53.2595 66.6862 55.335C64.3815 59.487 60.4485 64.8692 53.9286 69.8338C53.5869 70.0939 53.0991 70.0278 52.839 69.6862C52.5789 69.3446 52.645 68.8568 52.9865 68.5967C59.3111 63.7809 63.1103 58.5732 65.3267 54.5804C66.4352 52.5835 67.1478 50.8904 67.5817 49.7026C67.7987 49.1088 67.946 48.6415 68.0382 48.3261C68.0843 48.1685 68.1167 48.0488 68.1371 47.9702C68.1473 47.931 68.1545 47.902 68.1589 47.8837C68.1612 47.8745 68.1628 47.8681 68.1637 47.8643C68.164 47.863 68.1642 47.862 68.1644 47.8614Z" fill="url(#paint5_linear_64_62)"/>
<path d="M46.2112 73.1463C46.5585 72.8938 47.0448 72.9705 47.2973 73.3178C47.5498 73.665 47.473 74.1512 47.1258 74.4038C46.1157 75.1384 44.8582 75.7725 43.8776 76.2162C43.3826 76.4402 42.9483 76.6199 42.6372 76.7439C42.4816 76.806 42.3563 76.8542 42.2693 76.8872C42.2258 76.9037 42.1918 76.9165 42.1683 76.9252C42.1566 76.9295 42.1475 76.9329 42.1411 76.9353C42.1379 76.9364 42.1353 76.9373 42.1335 76.938C42.1326 76.9383 42.1319 76.9387 42.1313 76.9389C42.1311 76.939 42.1308 76.939 42.1306 76.9391C42.1306 76.9391 42.1304 76.9391 42.1304 76.9391C42.13 76.9384 42.1211 76.9142 41.8648 76.2085L42.1302 76.9392C41.7266 77.0858 41.2806 76.8774 41.1341 76.4738C40.9875 76.0703 41.1958 75.6243 41.5994 75.4777L41.6003 75.4774C41.6013 75.4771 41.6031 75.4764 41.6054 75.4755C41.6102 75.4738 41.6176 75.4711 41.6277 75.4674C41.6477 75.4599 41.6781 75.4485 41.7179 75.4334C41.7975 75.4032 41.9145 75.3581 42.0614 75.2996C42.3553 75.1824 42.7673 75.0118 43.2367 74.7994C44.1849 74.3704 45.3292 73.7878 46.2112 73.1463Z" fill="url(#paint6_linear_64_62)"/>
<path d="M28.0045 46.2813C28.4335 46.2806 28.782 46.6276 28.7832 47.0565V47.0604C28.7832 47.0644 28.7833 47.0713 28.7835 47.0811C28.7838 47.1007 28.7846 47.132 28.786 47.1743C28.7889 47.259 28.7947 47.388 28.8064 47.5575C28.8299 47.8967 28.8772 48.3976 28.9719 49.0293C29.1616 50.2932 29.5411 52.0774 30.2998 54.1368C31.8157 58.2512 34.8459 63.4675 40.9188 67.8418C41.2672 68.0928 41.3462 68.5787 41.0953 68.9271C40.8443 69.2755 40.3584 69.3544 40.01 69.1035C33.6437 64.5177 30.4445 59.027 28.8409 54.6745C28.0399 52.5005 27.637 50.6112 27.4343 49.26C27.3329 48.5842 27.2814 48.0421 27.2552 47.6651C27.2422 47.4767 27.2355 47.3293 27.232 47.2272C27.2302 47.1761 27.2293 47.1363 27.2288 47.1082C27.2286 47.0943 27.2284 47.0832 27.2284 47.0751C27.2283 47.0711 27.2283 47.0678 27.2283 47.0653V47.0608C27.2285 47.0603 27.241 47.0599 28.0057 47.0587L27.2283 47.0599C27.2276 46.6306 27.5751 46.2819 28.0045 46.2813Z" fill="url(#paint7_linear_64_62)"/>
<path d="M42.4994 21.0608C47.9708 17.3268 54.7509 16.3092 61.3415 20.1328C68.1284 24.0705 70.2811 33.8812 67.5126 44.0666C65.0789 53.0201 58.8162 62.4896 48.2056 69.1586C53.4407 71.872 60.1149 73.5299 68.4348 73.4419C77.9447 73.3412 83.2612 68.7462 84.5172 65.1341C85.2917 62.9054 84.9023 60.3651 84.2622 58.3046C83.946 57.2868 83.5777 56.4149 83.2886 55.7981C83.1443 55.4902 83.0203 55.2473 82.9334 55.0831C82.89 55.001 82.8559 54.9386 82.8332 54.8978C82.8219 54.8774 82.8134 54.8624 82.8081 54.853L82.8016 54.8417L82.7825 54.8066C82.5943 54.4408 82.7242 53.9878 83.084 53.7791C83.4554 53.5636 83.9311 53.69 84.1466 54.0614L83.4833 54.4462C84.1466 54.0614 84.1468 54.0617 84.1469 54.0619C84.147 54.062 84.1471 54.0623 84.1472 54.0625C84.1474 54.0629 84.1478 54.0634 84.1481 54.064C84.1488 54.0652 84.1498 54.0668 84.1509 54.0688C84.1531 54.0727 84.1562 54.0781 84.1601 54.0849C84.1678 54.0986 84.1787 54.1179 84.1925 54.1427C84.2201 54.1924 84.2593 54.2641 84.3079 54.3561C84.4052 54.54 84.5405 54.8054 84.6965 55.1382C85.008 55.8028 85.405 56.7421 85.7471 57.8432C86.4235 60.0205 86.9227 62.9491 85.9859 65.6445V65.6447C84.4508 70.0598 78.399 74.8913 68.4513 74.9967C59.455 75.0918 52.2561 73.1952 46.6581 70.0934C45.5703 70.7242 44.4401 71.3262 43.2667 71.8963C29.6412 78.5153 16.4133 75.7002 11.3344 68.2608C8.76945 64.5036 8.38126 59.6735 10.9997 54.5652C13.6008 49.4907 19.1523 44.1559 28.4377 39.186C28.8162 38.9833 29.2873 39.1259 29.49 39.5045C29.6926 39.883 29.55 40.3542 29.1715 40.5569C20.0371 45.446 14.7857 50.5877 12.3834 55.2745C9.99847 59.9273 10.4062 64.1433 12.6187 67.384C17.0947 73.9405 29.3479 76.9291 42.5873 70.4977C43.4539 70.0767 44.2958 69.6375 45.1137 69.1823C41.9163 67.1766 39.2952 64.7591 37.2077 62.1021C31.358 54.6563 29.7479 45.3914 31.3194 38.2628C32.8795 31.1865 37.055 24.7764 42.4994 21.0608ZM60.5612 21.4777C54.5686 18.001 48.4341 18.8931 43.3759 22.3451C38.3305 25.7885 34.3836 31.7738 32.8731 38.4399L32.8378 38.5976C31.3656 45.2756 32.8706 54.0646 38.4305 61.1414C40.5499 63.8391 43.266 66.2968 46.6447 68.2942C57.3729 61.8117 63.626 52.4375 66.0122 43.6587C68.706 33.7479 66.4389 24.8879 60.5612 21.4777Z" fill="url(#paint8_linear_64_62)"/>
<path d="M26.168 43.8328C36.5239 37.7119 51.353 35.3432 63.9264 38.0335L64.1817 38.0893C74.9844 40.4983 85.2708 48.9481 89.2988 57.4604C91.3341 61.7617 91.8306 66.2179 89.7852 69.9293C87.741 73.6387 83.2906 76.3609 75.9876 77.5005L75.9877 77.5006C74.1725 77.784 69.5424 78.0398 64.02 77.2994C58.4957 76.5588 52.0049 74.8117 46.5264 71.0323C46.1729 70.7884 46.0841 70.3042 46.3279 69.9508C46.5717 69.5974 47.0559 69.5086 47.4093 69.7524C52.613 73.3422 58.8384 75.0359 64.2266 75.7583C69.6167 76.4809 74.0956 76.2223 75.7479 75.9643L76.077 75.9115C82.9396 74.7804 86.7355 72.2414 88.4234 69.1788C90.1369 66.0695 89.8106 62.1774 87.8932 58.1255C84.0775 50.0618 74.1948 41.916 63.8456 39.6073L63.6011 39.5539C51.3932 36.9419 36.9649 39.2574 26.9592 45.1714C20.88 48.7649 15.9761 54.5366 15.2473 60.2329L15.2309 60.3675C14.8693 63.4756 15.8303 65.6488 17.4375 67.2168C19.0797 68.8189 21.4506 69.8385 23.9604 70.4699C26.4588 71.0985 29.019 71.3238 30.9649 71.3899C31.9354 71.4229 32.7474 71.4162 33.3151 71.4013C33.5988 71.3939 33.8211 71.3844 33.9714 71.3768C34.0465 71.3731 34.1036 71.3698 34.1413 71.3675C34.1601 71.3664 34.1741 71.3655 34.183 71.3649C34.1875 71.3646 34.1908 71.3644 34.1927 71.3642L34.1947 71.3641C34.623 71.3338 34.9949 71.6564 35.0252 72.0847C35.0555 72.513 34.7329 72.8848 34.3046 72.9151L34.2497 72.1396C34.3046 72.9151 34.3043 72.9152 34.3039 72.9152C34.3036 72.9153 34.3032 72.9152 34.3027 72.9152C34.3018 72.9153 34.3004 72.9154 34.2988 72.9155C34.2956 72.9157 34.2911 72.9161 34.2854 72.9165C34.2738 72.9172 34.2572 72.9183 34.2357 72.9196C34.1927 72.9222 34.1301 72.9258 34.0492 72.9299C33.8876 72.938 33.6528 72.9479 33.3559 72.9557C32.7622 72.9712 31.9186 72.9781 30.9121 72.9439C28.9041 72.8756 26.2248 72.643 23.581 71.9779C20.9486 71.3156 18.2745 70.2056 16.3517 68.3298C14.394 66.4198 13.27 63.7668 13.6863 60.1878C14.4333 53.7702 19.8267 47.5813 26.1679 43.8328H26.168Z" fill="url(#paint9_linear_64_62)"/>
<path fill-rule="evenodd" clip-rule="evenodd" d="M33.5072 35.9725C31.9484 35.9725 30.689 34.7344 30.689 33.2028C30.689 31.6712 31.9484 30.4331 33.5072 30.4331C35.066 30.4331 36.3255 31.6712 36.3255 33.2028C36.3255 34.7344 35.066 35.9725 33.5072 35.9725Z" fill="url(#paint10_linear_64_62)"/>
<path fill-rule="evenodd" clip-rule="evenodd" d="M67.8123 42.9695C66.2535 42.9695 64.994 41.7314 64.994 40.1999C64.994 38.6683 66.2535 37.4302 67.8123 37.4302C69.3711 37.4302 70.6306 38.6683 70.6306 40.1999C70.6306 41.7314 69.3711 42.9695 67.8123 42.9695Z" fill="url(#paint11_linear_64_62)"/>
<path fill-rule="evenodd" clip-rule="evenodd" d="M83.653 52.493C82.0942 52.493 80.8347 51.2549 80.8347 49.7233C80.8347 48.1917 82.0942 46.9536 83.653 46.9536C85.2118 46.9536 86.4713 48.1917 86.4713 49.7233C86.4713 51.2549 85.2118 52.493 83.653 52.493Z" fill="url(#paint12_linear_64_62)"/>
<path fill-rule="evenodd" clip-rule="evenodd" d="M46.4323 71.7352C44.8735 71.7352 43.614 70.4971 43.614 68.9655C43.614 67.4339 44.8735 66.1958 46.4323 66.1958C47.9911 66.1958 49.2506 67.4339 49.2506 68.9655C49.2506 70.4971 47.9911 71.7352 46.4323 71.7352Z" fill="url(#paint13_linear_64_62)"/>
<path fill-rule="evenodd" clip-rule="evenodd" d="M39.0465 75.7195C37.4877 75.7195 36.2283 74.4814 36.2283 72.9499C36.2283 71.4183 37.4877 70.1802 39.0465 70.1802C40.6053 70.1802 41.8648 71.4183 41.8648 72.9499C41.8648 74.4814 40.6053 75.7195 39.0465 75.7195Z" fill="url(#paint14_linear_64_62)"/>
<defs>
<linearGradient id="paint0_linear_64_62" x1="30.5912" y1="37.4379" x2="35.0274" y2="37.4379" gradientUnits="userSpaceOnUse">
<stop stop-color="#492CD4"/>
<stop offset="1" stop-color="#462CBD"/>
</linearGradient>
<linearGradient id="paint1_linear_64_62" x1="37.5439" y1="22.5467" x2="64.3451" y2="22.5467" gradientUnits="userSpaceOnUse">
<stop stop-color="#492CD4"/>
<stop offset="1" stop-color="#462CBD"/>
</linearGradient>
<linearGradient id="paint2_linear_64_62" x1="37.217" y1="34.1148" x2="65.1787" y2="34.1148" gradientUnits="userSpaceOnUse">
<stop stop-color="#492CD4"/>
<stop offset="1" stop-color="#462CBD"/>
</linearGradient>
<linearGradient id="paint3_linear_64_62" x1="71.3409" y1="37.3981" x2="82.8933" y2="37.3981" gradientUnits="userSpaceOnUse">
<stop stop-color="#492CD4"/>
<stop offset="1" stop-color="#462CBD"/>
</linearGradient>
<linearGradient id="paint4_linear_64_62" x1="70.5732" y1="45.0628" x2="79.5901" y2="45.0628" gradientUnits="userSpaceOnUse">
<stop stop-color="#492CD4"/>
<stop offset="1" stop-color="#462CBD"/>
</linearGradient>
<linearGradient id="paint5_linear_64_62" x1="53.4576" y1="48.0352" x2="68.9222" y2="48.0352" gradientUnits="userSpaceOnUse">
<stop stop-color="#492CD4"/>
<stop offset="1" stop-color="#462CBD"/>
</linearGradient>
<linearGradient id="paint6_linear_64_62" x1="41.8645" y1="73.775" x2="46.6685" y2="73.775" gradientUnits="userSpaceOnUse">
<stop stop-color="#492CD4"/>
<stop offset="1" stop-color="#462CBD"/>
</linearGradient>
<linearGradient id="paint7_linear_64_62" x1="28.0058" y1="47.0591" x2="40.4647" y2="47.0591" gradientUnits="userSpaceOnUse">
<stop stop-color="#492CD4"/>
<stop offset="1" stop-color="#462CBD"/>
</linearGradient>
<linearGradient id="paint8_linear_64_62" x1="9.99775" y1="18.5003" x2="85.7231" y2="18.5003" gradientUnits="userSpaceOnUse">
<stop stop-color="#492CD4"/>
<stop offset="1" stop-color="#462CBD"/>
</linearGradient>
<linearGradient id="paint9_linear_64_62" x1="14.3838" y1="37.7124" x2="90.3166" y2="37.7124" gradientUnits="userSpaceOnUse">
<stop stop-color="#492CD4"/>
<stop offset="1" stop-color="#462CBD"/>
</linearGradient>
<linearGradient id="paint10_linear_64_62" x1="30.6888" y1="30.433" x2="36.3253" y2="30.433" gradientUnits="userSpaceOnUse">
<stop stop-color="#492CD4"/>
<stop offset="1" stop-color="#462CBD"/>
</linearGradient>
<linearGradient id="paint11_linear_64_62" x1="64.9938" y1="37.4301" x2="70.6304" y2="37.4301" gradientUnits="userSpaceOnUse">
<stop stop-color="#492CD4"/>
<stop offset="1" stop-color="#462CBD"/>
</linearGradient>
<linearGradient id="paint12_linear_64_62" x1="80.8345" y1="46.9535" x2="86.4711" y2="46.9535" gradientUnits="userSpaceOnUse">
<stop stop-color="#492CD4"/>
<stop offset="1" stop-color="#462CBD"/>
</linearGradient>
<linearGradient id="paint13_linear_64_62" x1="43.6138" y1="66.1957" x2="49.2504" y2="66.1957" gradientUnits="userSpaceOnUse">
<stop stop-color="#492CD4"/>
<stop offset="1" stop-color="#462CBD"/>
</linearGradient>
<linearGradient id="paint14_linear_64_62" x1="36.2281" y1="70.1801" x2="41.8646" y2="70.1801" gradientUnits="userSpaceOnUse">
<stop stop-color="#492CD4"/>
<stop offset="1" stop-color="#462CBD"/>
</linearGradient>
</defs>
</svg>
