<svg width="100" height="96" viewBox="0 0 100 96" fill="none" xmlns="http://www.w3.org/2000/svg">
<g clip-path="url(#clip0_64_62)">
<path d="M35.1339 19.4915C35.5462 19.3717 35.9776 19.6089 36.0974 20.0212C36.2172 20.4335 35.9801 20.8649 35.5677 20.9847C34.5753 21.2731 33.4886 21.6637 32.6429 21.9857C32.2217 22.146 31.8635 22.2881 31.611 22.3899C31.4848 22.4408 31.3851 22.4816 31.3174 22.5095C31.2835 22.5234 31.2575 22.5342 31.2402 22.5414C31.2316 22.5449 31.2252 22.5477 31.2209 22.5494C31.2188 22.5503 31.2173 22.5509 31.2163 22.5513C31.2158 22.5515 31.2154 22.5517 31.2152 22.5518L31.215 22.5519C30.8191 22.7179 30.3635 22.5313 30.1975 22.1354C30.0315 21.7394 30.2179 21.2838 30.6139 21.1178L30.8205 21.6106C30.6204 21.1331 30.6142 21.1183 30.614 21.1178L30.6146 21.1175C30.615 21.1174 30.6155 21.1171 30.6162 21.1168C30.6175 21.1163 30.6194 21.1155 30.6219 21.1145C30.6268 21.1124 30.6341 21.1094 30.6434 21.1055C30.6622 21.0977 30.6897 21.0863 30.7252 21.0717C30.7963 21.0424 30.8996 21.0002 31.0296 20.9478C31.2896 20.843 31.6573 20.6971 32.0897 20.5325C32.9512 20.2046 34.0827 19.7969 35.1339 19.4915Z" fill="url(#paint0_linear_64_62)"/>
<path d="M41.5672 9.73903C44.468 6.98009 48.8594 4.24943 54.6785 4.59922L54.7788 4.60577C59.0105 4.89646 61.683 7.36259 63.2709 9.69766C64.0703 10.8732 64.6056 12.0287 64.9413 12.8889C65.1095 13.32 65.2288 13.6798 65.3067 13.9345C65.3456 14.0619 65.3742 14.1632 65.3935 14.2344C65.4032 14.2699 65.4105 14.298 65.4156 14.318C65.4182 14.3279 65.4201 14.3359 65.4216 14.3418C65.4223 14.3447 65.4229 14.3472 65.4234 14.3491C65.4236 14.35 65.4239 14.3509 65.4241 14.3516C65.4241 14.3519 65.4242 14.3523 65.4242 14.3525C65.4239 14.353 65.406 14.3577 64.6687 14.5357L65.4244 14.3532C65.5252 14.7706 65.2685 15.1906 64.8511 15.2914C64.4337 15.3922 64.0137 15.1355 63.9129 14.7181C63.9128 14.7178 63.9127 14.7174 63.9126 14.7169C63.912 14.7145 63.9109 14.71 63.9093 14.7036C63.906 14.6906 63.9005 14.6698 63.8929 14.6417C63.8776 14.5854 63.8535 14.4998 63.8196 14.3889C63.7518 14.1669 63.6452 13.8445 63.4929 13.4542C63.1874 12.6716 62.7023 11.6267 61.9851 10.572C60.5746 8.49776 58.3081 6.43665 54.7552 6.16305L54.5851 6.15138C49.3459 5.83646 45.3552 8.28213 42.6387 10.8657C41.282 12.1561 40.2569 13.4691 39.5714 14.4595C39.2292 14.9539 38.973 15.3661 38.8037 15.6521C38.719 15.7951 38.6561 15.9064 38.6152 15.9805C38.5947 16.0175 38.5798 16.0453 38.5703 16.0631C38.5656 16.0719 38.5621 16.0782 38.5601 16.082C38.5591 16.0839 38.5585 16.0852 38.5581 16.0858C38.558 16.0861 38.558 16.0862 38.558 16.0862C38.3603 16.467 37.8915 16.6158 37.5104 16.4185C37.1291 16.221 36.9801 15.7518 37.1776 15.3705L37.8236 15.7051C37.1796 15.3716 37.1777 15.3702 37.1779 15.3699C37.178 15.3697 37.1782 15.3693 37.1783 15.3689C37.1787 15.3682 37.1792 15.3674 37.1798 15.3664C37.1808 15.3643 37.1822 15.3615 37.184 15.3581C37.1876 15.3513 37.1926 15.3419 37.1989 15.33C37.2117 15.3061 37.2302 15.272 37.2542 15.2286C37.3022 15.1416 37.3727 15.0169 37.4657 14.8599C37.6516 14.546 37.9275 14.1026 38.2929 13.5746C39.0228 12.52 40.1153 11.1199 41.5672 9.73903Z" fill="url(#paint1_linear_64_62)"/>
<path d="M45.5853 16.776C50.7136 15.959 57.8138 15.6341 65.6916 17.6093C66.108 17.7138 66.361 18.1361 66.2566 18.5526C66.1522 18.969 65.7298 19.222 65.3134 19.1175C57.6877 17.2055 50.8068 17.5187 45.8299 18.3115C43.3425 18.7078 41.3347 19.2233 39.9528 19.6381C39.262 19.8454 38.7281 20.0275 38.3694 20.1567C38.1901 20.2212 38.0546 20.2726 37.9652 20.3073C37.9206 20.3246 37.8875 20.3377 37.8662 20.3463C37.8555 20.3505 37.8478 20.3537 37.8431 20.3556C37.8408 20.3565 37.8391 20.3572 37.8383 20.3576C37.8379 20.3577 37.8377 20.3577 37.8376 20.3578C37.441 20.5219 36.9865 20.3337 36.8221 19.9371C36.6577 19.5405 36.8461 19.0856 37.2427 18.9212L37.5225 19.5963C37.2514 18.9422 37.2432 18.9218 37.2433 18.921C37.2435 18.9209 37.2439 18.9208 37.2443 18.9206C37.245 18.9203 37.2459 18.9199 37.247 18.9195C37.2492 18.9186 37.2522 18.9174 37.2558 18.9159C37.2632 18.9129 37.2736 18.9086 37.287 18.9033C37.3138 18.8925 37.3525 18.8771 37.4028 18.8576C37.5036 18.8185 37.6509 18.7627 37.8425 18.6937C38.2257 18.5557 38.7863 18.3647 39.5057 18.1488C40.9443 17.7169 43.0201 17.1846 45.5853 16.776Z" fill="url(#paint2_linear_64_62)"/>
<path d="M70.9265 19.9543C71.0611 19.5466 71.5007 19.3252 71.9085 19.4598L71.6847 20.1377C71.9008 19.4832 71.9085 19.4607 71.9089 19.46C71.909 19.46 71.9093 19.4601 71.9095 19.4602C71.9099 19.4603 71.9104 19.4605 71.911 19.4607C71.9122 19.461 71.9137 19.4616 71.9156 19.4622C71.9193 19.4634 71.9244 19.4651 71.9308 19.4673C71.9436 19.4717 71.9619 19.4779 71.9853 19.4861C72.0322 19.5024 72.1001 19.5264 72.1874 19.5585C72.362 19.6226 72.6149 19.7189 72.9353 19.8501C73.5761 20.1125 74.4879 20.5147 75.5853 21.0783C77.779 22.205 80.7215 23.9807 83.7255 26.5811C84.0502 26.8621 84.0856 27.3531 83.8046 27.6777C83.5236 28.0024 83.0325 28.0377 82.7079 27.7567C79.8169 25.2541 76.9834 23.5444 74.8749 22.4614C73.8212 21.9202 72.9503 21.5365 72.3462 21.2892C72.0442 21.1655 71.809 21.076 71.6513 21.018C71.5724 20.9891 71.5129 20.9681 71.4741 20.9545C71.4547 20.9478 71.4405 20.9429 71.4316 20.9398C71.4271 20.9383 71.4239 20.9373 71.4222 20.9367L71.4211 20.9362L71.421 20.9363L71.4207 20.9361H71.4206C71.0132 20.8014 70.7919 20.3619 70.9265 19.9543Z" fill="url(#paint3_linear_64_62)"/>
<path d="M70.1541 27.634C70.2807 27.2237 70.7158 26.9937 71.1261 27.1202L70.897 27.8631C71.1262 27.1202 71.1264 27.1202 71.1267 27.1203C71.1268 27.1203 71.1271 27.1204 71.1273 27.1205C71.1277 27.1206 71.1282 27.1208 71.1288 27.1209C71.1299 27.1213 71.1314 27.1217 71.133 27.1223C71.1364 27.1233 71.1409 27.1248 71.1464 27.1265C71.1575 27.1301 71.1729 27.1351 71.1925 27.1415C71.2316 27.1544 71.2873 27.1732 71.3585 27.1984C71.5011 27.2487 71.7058 27.3244 71.9637 27.4286C72.4796 27.6371 73.2093 27.9602 74.0812 28.424C75.8244 29.3511 78.1423 30.8436 80.4576 33.1114C80.7643 33.4118 80.7694 33.9041 80.4689 34.2108C80.1685 34.5176 79.6762 34.5227 79.3695 34.2222C77.1803 32.078 74.9901 30.6686 73.3511 29.7969C72.532 29.3612 71.8521 29.0606 71.3811 28.8703C71.1457 28.7752 70.9627 28.7077 70.8408 28.6646C70.7799 28.6431 70.7343 28.6277 70.7051 28.618C70.6906 28.6132 70.6801 28.6099 70.6738 28.6079C70.6707 28.6069 70.6686 28.6062 70.6676 28.6059V28.6058C70.2575 28.4791 70.0276 28.0442 70.1541 27.634ZM70.6676 28.6058L70.6675 28.6059L70.6672 28.6058C70.6671 28.6058 70.667 28.6057 70.667 28.6057C70.6671 28.6057 70.6673 28.6057 70.6676 28.6058Z" fill="url(#paint4_linear_64_62)"/>
<path d="M68.4881 30.6617C68.5843 30.2432 69.0015 29.9819 69.42 30.078C69.8384 30.1742 70.0997 30.5914 70.0035 31.0099L69.2458 30.8357C69.9882 31.0064 70.0031 31.0102 70.0033 31.0106C70.0033 31.0108 70.0032 31.0113 70.0031 31.0117C70.003 31.0125 70.0026 31.0135 70.0024 31.0146C70.0019 31.0169 70.0012 31.0198 70.0004 31.0235C69.9987 31.0307 69.9962 31.0407 69.9931 31.0534C69.9869 31.0789 69.9779 31.1151 69.9657 31.1617C69.9415 31.2549 69.9049 31.3898 69.8543 31.5629C69.7531 31.9091 69.5953 32.4089 69.3659 33.0366C68.9073 34.2918 68.162 36.0598 67.01 38.1353C64.7052 42.2873 60.7722 47.6695 54.2523 52.6341C53.9107 52.8942 53.4228 52.8281 53.1627 52.4865C52.9026 52.1449 52.9687 51.6571 53.3103 51.397C59.6348 46.5812 63.4341 41.3735 65.6505 37.3807C66.7589 35.3838 67.4715 33.6907 67.9055 32.5029C68.1224 31.9091 68.2697 31.4418 68.362 31.1264C68.4081 30.9688 68.4404 30.8491 68.4609 30.7705C68.4711 30.7313 68.4782 30.7023 68.4827 30.684C68.4849 30.6748 68.4865 30.6684 68.4874 30.6646C68.4877 30.6633 68.4879 30.6623 68.4881 30.6617Z" fill="url(#paint5_linear_64_62)"/>
<path d="M46.535 55.9466C46.8822 55.6941 47.3685 55.7708 47.621 56.1181C47.8736 56.4653 47.7968 56.9515 47.4496 57.2041C46.4395 57.9387 45.182 58.5728 44.2014 59.0165C43.7063 59.2404 43.2721 59.4202 42.961 59.5442C42.8053 59.6063 42.68 59.6545 42.593 59.6875C42.5495 59.704 42.5156 59.7168 42.4921 59.7255C42.4803 59.7298 42.4712 59.7332 42.4648 59.7355C42.4616 59.7367 42.459 59.7376 42.4572 59.7383C42.4563 59.7386 42.4556 59.739 42.455 59.7392C42.4548 59.7392 42.4546 59.7393 42.4544 59.7393C42.4543 59.7394 42.4541 59.7394 42.4541 59.7394C42.4537 59.7386 42.4448 59.7145 42.1885 59.0088L42.4539 59.7395C42.0503 59.8861 41.6043 59.6777 41.4578 59.2741C41.3112 58.8706 41.5196 58.4246 41.9231 58.278L41.9241 58.2777C41.9251 58.2774 41.9268 58.2767 41.9292 58.2758C41.9339 58.2741 41.9414 58.2714 41.9514 58.2677C41.9715 58.2602 42.0019 58.2488 42.0416 58.2337C42.1212 58.2035 42.2383 58.1584 42.3851 58.0999C42.6791 57.9827 43.091 57.8121 43.5604 57.5997C44.5086 57.1707 45.6529 56.5881 46.535 55.9466Z" fill="url(#paint6_linear_64_62)"/>
<path d="M28.3282 29.0815C28.7573 29.0809 29.1057 29.4279 29.1069 29.8568V29.8607C29.1069 29.8647 29.107 29.8716 29.1072 29.8814C29.1075 29.901 29.1083 29.9323 29.1098 29.9746C29.1126 30.0592 29.1184 30.1883 29.1302 30.3578C29.1537 30.697 29.2009 31.1979 29.2957 31.8296C29.4853 33.0935 29.8648 34.8777 30.6236 36.9371C32.1395 41.0515 35.1697 46.2677 41.2426 50.6421C41.591 50.8931 41.6699 51.379 41.419 51.7274C41.168 52.0758 40.6822 52.1547 40.3338 51.9038C33.9674 47.318 30.7683 41.8273 29.1646 37.4748C28.3636 35.3007 27.9608 33.4115 27.758 32.0603C27.6566 31.3845 27.6051 30.8423 27.579 30.4654C27.5659 30.2769 27.5592 30.1296 27.5557 30.0275C27.554 29.9764 27.5531 29.9366 27.5526 29.9085C27.5523 29.8945 27.5522 29.8835 27.5521 29.8754C27.5521 29.8714 27.552 29.8681 27.552 29.8655V29.8611C27.5522 29.8606 27.5647 29.8602 28.3295 29.859L27.552 29.8602C27.5513 29.4309 27.8989 29.0822 28.3282 29.0815Z" fill="url(#paint7_linear_64_62)"/>
<path d="M42.8231 3.8611C48.2945 0.127053 55.0747 -0.890463 61.6652 2.93313C68.4521 6.87083 70.6048 16.6815 67.8363 26.8669C65.4027 35.8204 59.14 45.2898 48.5293 51.9588C53.7644 54.6723 60.4387 56.3302 68.7585 56.2421C78.2684 56.1415 83.585 51.5465 84.8409 47.9343C85.6155 45.7057 85.2261 43.1654 84.5859 41.1049C84.2698 40.0871 83.9015 39.2152 83.6123 38.5984C83.468 38.2905 83.344 38.0476 83.2572 37.8833C83.2138 37.8013 83.1796 37.7389 83.157 37.6981C83.1457 37.6777 83.1372 37.6627 83.1318 37.6533L83.1254 37.642L83.1062 37.6069C82.9181 37.2411 83.0479 36.7881 83.4077 36.5794C83.7791 36.3639 84.2549 36.4903 84.4703 36.8617L83.8071 37.2465C84.4704 36.8617 84.4705 36.8619 84.4706 36.8622C84.4707 36.8623 84.4708 36.8626 84.4709 36.8628C84.4712 36.8632 84.4715 36.8637 84.4719 36.8643C84.4726 36.8655 84.4735 36.8671 84.4746 36.8691C84.4769 36.873 84.4799 36.8784 84.4838 36.8852C84.4916 36.8989 84.5025 36.9182 84.5163 36.943C84.5439 36.9927 84.583 37.0644 84.6317 37.1564C84.7289 37.3403 84.8642 37.6056 85.0202 37.9385C85.3317 38.6031 85.7287 39.5424 86.0708 40.6435C86.7472 42.8208 87.2465 45.7494 86.3097 48.4448V48.445C84.7746 52.8601 78.7228 57.6916 68.775 57.797C59.7788 57.8921 52.5798 55.9955 46.9818 52.8937C45.8941 53.5244 44.7638 54.1265 43.5904 54.6965C29.9649 61.3156 16.737 58.5005 11.6582 51.0611C9.09318 47.3039 8.705 42.4738 11.3234 37.3655C13.9245 32.291 19.476 26.9562 28.7614 21.9863C29.1399 21.7836 29.611 21.9262 29.8137 22.3048C30.0163 22.6833 29.8737 23.1545 29.4952 23.3571C20.3608 28.2463 15.1095 33.388 12.7071 38.0748C10.3222 42.7276 10.73 46.9436 12.9424 50.1843C17.4185 56.7408 29.6716 59.7294 42.911 53.2979C43.7776 52.8769 44.6196 52.4378 45.4374 51.9826C42.24 49.9769 39.6189 47.5594 37.5315 44.9024C31.6818 37.4566 30.0716 28.1916 31.6431 21.0631C33.2033 13.9868 37.3787 7.57673 42.8231 3.8611ZM60.8849 4.27802C54.8923 0.801333 48.7579 1.6934 43.6997 5.14544C38.6542 8.5888 34.7073 14.5741 33.1968 21.2402L33.1615 21.3979C31.6893 28.0759 33.1943 36.8649 38.7542 43.9417C40.8736 46.6394 43.5897 49.0971 46.9684 51.0945C57.6967 44.612 63.9497 35.2378 66.3359 26.459C69.0297 16.5482 66.7627 7.68823 60.8849 4.27802Z" fill="url(#paint8_linear_64_62)"/>
<path d="M26.4918 26.6331C36.8476 20.5122 51.6768 18.1435 64.2502 20.8337L64.5055 20.8895C75.3082 23.2986 85.5945 31.7484 89.6225 40.2607C91.6578 44.562 92.1543 49.0182 90.109 52.7296C88.0647 56.439 83.6144 59.1612 76.3113 60.3008L76.3114 60.3009C74.4963 60.5843 69.8662 60.8401 64.3438 60.0997C58.8194 59.3591 52.3286 57.612 46.8501 53.8325C46.4967 53.5887 46.4078 53.1045 46.6516 52.7511C46.8955 52.3977 47.3796 52.3088 47.7331 52.5527C52.9368 56.1425 59.1622 57.8362 64.5504 58.5586C69.9405 59.2812 74.4194 59.0225 76.0716 58.7646L76.4007 58.7118C83.2633 57.5807 87.0592 55.0417 88.7471 51.9791C90.4606 48.8698 90.1343 44.9777 88.217 40.9258C84.4012 32.8621 74.5185 24.7163 64.1693 22.4076L63.9248 22.3542C51.7169 19.7422 37.2886 22.0577 27.283 27.9717C21.2037 31.5652 16.2998 37.3369 15.571 43.0332L15.5546 43.1678C15.1931 46.2759 16.154 48.4491 17.7612 50.0171C19.4034 51.6192 21.7743 52.6388 24.2841 53.2702C26.7826 53.8988 29.3427 54.1241 31.2887 54.1902C32.2591 54.2232 33.0711 54.2165 33.6388 54.2016C33.9225 54.1942 34.1449 54.1847 34.2951 54.1771C34.3702 54.1734 34.4273 54.1701 34.465 54.1678C34.4838 54.1667 34.4978 54.1658 34.5068 54.1652C34.5112 54.1649 34.5145 54.1647 34.5165 54.1645L34.5184 54.1644C34.9468 54.1341 35.3186 54.4567 35.349 54.885C35.3793 55.3133 35.0566 55.6851 34.6283 55.7154L34.5734 54.9399C34.6283 55.7154 34.628 55.7155 34.6276 55.7155C34.6273 55.7156 34.6269 55.7155 34.6265 55.7155C34.6255 55.7156 34.6242 55.7157 34.6226 55.7158C34.6193 55.716 34.6148 55.7164 34.6091 55.7168C34.5975 55.7175 34.5809 55.7186 34.5594 55.7199C34.5164 55.7225 34.4538 55.7261 34.373 55.7302C34.2113 55.7382 33.9765 55.7482 33.6796 55.756C33.0859 55.7715 32.2423 55.7784 31.2358 55.7442C29.2279 55.6759 26.5485 55.4433 23.9048 54.7782C21.2723 54.1159 18.5982 53.0059 16.6754 51.1301C14.7177 49.2201 13.5937 46.5671 14.0101 42.9881C14.757 36.5705 20.1504 30.3816 26.4917 26.6331H26.4918Z" fill="url(#paint9_linear_64_62)"/>
<path fill-rule="evenodd" clip-rule="evenodd" d="M33.831 18.7728C32.2722 18.7728 31.0127 17.5347 31.0127 16.0031C31.0127 14.4715 32.2722 13.2334 33.831 13.2334C35.3898 13.2334 36.6492 14.4715 36.6492 16.0031C36.6492 17.5347 35.3898 18.7728 33.831 18.7728Z" fill="url(#paint10_linear_64_62)"/>
<path fill-rule="evenodd" clip-rule="evenodd" d="M68.136 25.7698C66.5772 25.7698 65.3177 24.5317 65.3177 23.0001C65.3177 21.4686 66.5772 20.2305 68.136 20.2305C69.6948 20.2305 70.9543 21.4686 70.9543 23.0001C70.9543 24.5317 69.6948 25.7698 68.136 25.7698Z" fill="url(#paint11_linear_64_62)"/>
<path fill-rule="evenodd" clip-rule="evenodd" d="M83.9767 35.2933C82.4179 35.2933 81.1584 34.0552 81.1584 32.5236C81.1584 30.992 82.4179 29.7539 83.9767 29.7539C85.5355 29.7539 86.795 30.992 86.795 32.5236C86.795 34.0552 85.5355 35.2933 83.9767 35.2933Z" fill="url(#paint12_linear_64_62)"/>
<path fill-rule="evenodd" clip-rule="evenodd" d="M46.756 54.5355C45.1972 54.5355 43.9377 53.2974 43.9377 51.7658C43.9377 50.2342 45.1972 48.9961 46.756 48.9961C48.3148 48.9961 49.5743 50.2342 49.5743 51.7658C49.5743 53.2974 48.3148 54.5355 46.756 54.5355Z" fill="url(#paint13_linear_64_62)"/>
<path fill-rule="evenodd" clip-rule="evenodd" d="M39.3703 58.5198C37.8115 58.5198 36.552 57.2817 36.552 55.7501C36.552 54.2186 37.8115 52.9805 39.3703 52.9805C40.9291 52.9805 42.1885 54.2186 42.1885 55.7501C42.1885 57.2817 40.9291 58.5198 39.3703 58.5198Z" fill="url(#paint14_linear_64_62)"/>
<path fill-rule="evenodd" clip-rule="evenodd" d="M5.00584 83.2548V72.6221H0.602539C0.602539 71.075 1.30289 70.3014 2.70361 70.3014H12.0758C12.0758 71.8486 11.3755 72.6221 9.97475 72.6221H7.69097V81.318C7.69097 81.9516 7.45968 82.433 6.9971 82.7621C6.54617 83.0906 5.88242 83.2548 5.00584 83.2548ZM13.9786 83.2548V72.074C13.9786 71.4404 14.2041 70.959 14.655 70.6299C15.1176 70.3014 15.7875 70.1372 16.6647 70.1372V75.49H21.7979V72.074C21.7979 71.4404 22.0233 70.959 22.4743 70.6299C22.9368 70.3014 23.6067 70.1372 24.484 70.1372V81.318C24.484 81.9516 24.2527 82.433 23.7901 82.7621C23.3392 83.0906 22.6751 83.2548 21.7979 83.2548V77.8107H16.6647V81.318C16.6647 81.9516 16.4331 82.433 15.9699 82.7621C15.5196 83.0906 14.8559 83.2548 13.9786 83.2548ZM26.9038 81.8661V71.5259C26.9038 71.1845 27.0318 70.8981 27.2877 70.6668C27.5552 70.4232 27.8779 70.3014 28.2556 70.3014H36.4228C36.4228 71.1055 36.2886 71.6902 36.0204 72.0556C35.7528 72.421 35.3204 72.6037 34.723 72.6037H29.5899V75.49H34.3761C34.3761 76.294 34.2423 76.8787 33.9747 77.2441C33.7065 77.6095 33.2741 77.7922 32.6774 77.7922H29.5899V80.7883H35.1069C35.6919 80.7883 36.1183 80.971 36.3858 81.3364C36.654 81.7018 36.7882 82.2865 36.7882 83.0906H28.2556C27.8779 83.0906 27.5552 82.9749 27.2877 82.7436C27.0318 82.5123 26.9038 82.2198 26.9038 81.8661ZM47.9602 83.2548V72.6221H43.5569C43.5569 71.075 44.2572 70.3014 45.6579 70.3014H55.0301C55.0301 71.8486 54.3298 72.6221 52.9291 72.6221H50.6453V81.318C50.6453 81.9516 50.414 82.433 49.9514 82.7621C49.5005 83.0906 48.8367 83.2548 47.9602 83.2548ZM56.933 83.2548V72.074C56.933 71.4404 57.1584 70.959 57.6093 70.6299C58.0719 70.3014 58.7418 70.1372 59.6191 70.1372V75.49H64.7522V72.074C64.7522 71.4404 64.9777 70.959 65.4286 70.6299C65.8912 70.3014 66.5611 70.1372 67.4383 70.1372V81.318C67.4383 81.9516 67.207 82.433 66.7444 82.7621C66.2935 83.0906 65.6294 83.2548 64.7522 83.2548V77.8107H59.6191V81.318C59.6191 81.9516 59.3874 82.433 58.9242 82.7621C58.4739 83.0906 57.8102 83.2548 56.933 83.2548ZM70.2235 83.2548V72.0915C70.2235 71.4825 70.4548 71.0076 70.9174 70.6668C71.393 70.3137 72.057 70.1372 72.9096 70.1372V81.3005C72.9096 81.9211 72.6719 82.4022 72.1963 82.7436C71.7337 83.0844 71.0761 83.2548 70.2235 83.2548ZM75.7862 83.2548V71.5259C75.7862 71.1722 75.9142 70.8797 76.1701 70.6484C76.4377 70.4171 76.7603 70.3014 77.138 70.3014H81.9436C83.3074 70.3014 84.3547 70.6545 85.0855 71.3607C85.8287 72.0552 86.2002 73.0481 86.2002 74.3393C86.2002 75.0578 86.0541 75.6607 85.7619 76.1479C85.4814 76.6351 85.0428 77.0186 84.4461 77.2985V77.3724C85.506 77.8473 86.036 78.7423 86.036 80.0575V81.318C86.036 81.9516 85.8044 82.433 85.3411 82.7621C84.8908 83.0906 84.2271 83.2548 83.3499 83.2548V80.1489C83.3499 79.5399 83.2281 79.0954 82.9845 78.8155C82.7532 78.5233 82.3939 78.3772 81.9067 78.3772H78.4354V81.318C78.4354 81.9516 78.2099 82.433 77.759 82.7621C77.3087 83.0906 76.6511 83.2548 75.7862 83.2548ZM78.4354 76.0935H81.7969C82.3573 76.0935 82.7836 75.9412 83.0758 75.6367C83.368 75.3322 83.5141 74.8936 83.5141 74.3209C83.5141 73.7242 83.3742 73.2856 83.0943 73.005C82.8261 72.7252 82.3936 72.5852 81.7969 72.5852H78.4354V76.0935ZM89.8688 83.0906C89.4911 83.0906 89.1685 82.9749 88.9009 82.7436C88.645 82.5123 88.517 82.2201 88.517 81.867V71.5259C88.517 71.1728 88.645 70.8806 88.9009 70.6494C89.1685 70.4174 89.4911 70.3014 89.8688 70.3014H93.8523C94.9485 70.3014 95.9168 70.5146 96.7571 70.9409C97.5974 71.3555 98.2488 71.9464 98.7114 72.7135C99.1869 73.4806 99.4247 74.3575 99.4247 75.3442V78.0118C99.4247 78.9986 99.1869 79.8816 98.7114 80.661C98.2488 81.4281 97.5912 82.0248 96.7386 82.4511C95.8983 82.8774 94.9362 83.0906 93.8523 83.0906H89.8688ZM91.2021 80.7893H93.6686C94.6793 80.7893 95.4406 80.5577 95.9524 80.0944C96.4759 79.6319 96.7376 78.95 96.7376 78.0488V75.3082C96.7376 74.4187 96.4759 73.7488 95.9524 73.2985C95.4406 72.8353 94.6793 72.6037 93.6686 72.6037H91.2021V80.7893Z" fill="url(#paint15_linear_64_62)"/>
<path fill-rule="evenodd" clip-rule="evenodd" d="M16.3178 94.1699C15.6648 94.1699 15.0949 94.0898 14.6084 93.9298C14.1225 93.7704 13.749 93.5456 13.4879 93.2554C13.2339 92.958 13.1069 92.6133 13.1069 92.2214C13.1069 91.6266 13.5096 91.3292 14.3149 91.3292C14.3441 91.8806 14.529 92.2978 14.8698 92.5809C15.2184 92.8634 15.7046 93.0046 16.3285 93.0046C16.8436 93.0046 17.2427 92.9178 17.5258 92.7442C17.8089 92.5628 17.9505 92.3124 17.9505 91.993C17.9505 91.7824 17.8961 91.6117 17.7872 91.4808C17.6784 91.3435 17.4934 91.224 17.2323 91.1222C16.9706 91.0134 16.5896 90.9045 16.0894 90.7957C15.3781 90.6286 14.8157 90.4436 14.4024 90.2408C13.9955 90.0374 13.7014 89.7941 13.52 89.511C13.3386 89.2207 13.2478 88.8615 13.2478 88.4332C13.2478 88.0199 13.3677 87.6571 13.6074 87.3448C13.8543 87.0332 14.1989 86.7902 14.6414 86.6159C15.0911 86.4416 15.6061 86.3545 16.1866 86.3545C16.7457 86.3545 17.243 86.4306 17.6784 86.5829C18.1209 86.728 18.4655 86.935 18.7124 87.2039C18.9663 87.4721 19.0933 87.7805 19.0933 88.129C19.0933 88.6661 18.7049 88.9454 17.9281 88.9667C17.8847 88.4659 17.7253 88.0996 17.45 87.8676C17.174 87.6357 16.7529 87.5197 16.1866 87.5197C15.7007 87.5197 15.3272 87.5994 15.0661 87.7588C14.805 87.9182 14.6745 88.143 14.6745 88.4332C14.6745 88.6366 14.725 88.8074 14.8261 88.9454C14.9278 89.0756 15.0985 89.1915 15.3382 89.2933C15.5773 89.3879 15.9184 89.486 16.3615 89.5877C17.1086 89.7542 17.6997 89.9428 18.1351 90.1533C18.5705 90.3568 18.8863 90.6072 19.0826 90.9045C19.2783 91.1948 19.3761 91.554 19.3761 91.9823C19.3761 92.4248 19.2491 92.8129 18.9952 93.1465C18.7483 93.4731 18.3926 93.727 17.9281 93.9084C17.4714 94.0827 16.9346 94.1699 16.3178 94.1699ZM25.5608 94.1699C24.966 94.1699 24.4218 94.0536 23.9281 93.821C23.4344 93.5819 23.0425 93.2593 22.7522 92.853C22.4697 92.4462 22.3285 92.0033 22.3285 91.5246V88.9891C22.3285 88.5097 22.4697 88.0704 22.7522 87.6713C23.0425 87.2651 23.4344 86.946 23.9281 86.7141C24.4218 86.4744 24.966 86.3545 25.5608 86.3545C26.1555 86.3545 26.6997 86.4744 27.1934 86.7141C27.6942 86.946 28.0862 87.2651 28.3693 87.6713C28.6596 88.0704 28.8047 88.5097 28.8047 88.9891V91.5246C28.8047 92.0033 28.6596 92.4462 28.3693 92.853C28.0862 93.2593 27.6942 93.5819 27.1934 93.821C26.6997 94.0536 26.1555 94.1699 25.5608 94.1699ZM25.5608 92.8958C26.105 92.8958 26.5404 92.7688 26.8669 92.5148C27.1934 92.2537 27.3567 91.9165 27.3567 91.5032V89.0212C27.3567 88.6007 27.1934 88.2635 26.8669 88.0095C26.5404 87.7478 26.105 87.6169 25.5608 87.6169C25.0237 87.6169 24.5919 87.7478 24.2653 88.0095C23.9388 88.2635 23.7755 88.6007 23.7755 89.0212V91.5032C23.7755 91.9165 23.9388 92.2537 24.2653 92.5148C24.5919 92.7688 25.0237 92.8958 25.5608 92.8958ZM35.14 94.1699C34.5303 94.1699 33.9787 94.0464 33.485 93.7996C32.9991 93.5527 32.6181 93.2116 32.3421 92.7763C32.0668 92.3409 31.9291 91.8475 31.9291 91.2962V87.4322C31.9291 87.0837 32.0525 86.8187 32.2994 86.6373C32.5455 86.4488 32.9084 86.3545 33.3878 86.3545V91.2962C33.3878 91.7821 33.5472 92.1702 33.8659 92.4604C34.1853 92.7507 34.61 92.8958 35.14 92.8958C35.6693 92.8958 36.0936 92.7507 36.4131 92.4604C36.7325 92.1702 36.8922 91.7821 36.8922 91.2962V87.4322C36.8922 87.0766 37.0156 86.808 37.2624 86.6266C37.5093 86.4452 37.8721 86.3545 38.3509 86.3545V91.2962C38.3509 91.8475 38.2129 92.3409 37.9369 92.7763C37.6615 93.2116 37.277 93.5527 36.7833 93.7996C36.2974 94.0464 35.7496 94.1699 35.14 94.1699ZM41.7989 94.1699V87.1164C41.7989 86.9279 41.8679 86.7721 42.0059 86.649C42.1432 86.5181 42.3172 86.4526 42.5277 86.4526H45.4344C46.2177 86.4526 46.8235 86.6593 47.2517 87.0727C47.6871 87.4867 47.9048 88.0672 47.9048 88.8142C47.9048 89.2424 47.8177 89.6052 47.6434 89.9026C47.4691 90.1928 47.2044 90.4251 46.8494 90.5994V90.6324C47.4876 90.9156 47.8067 91.4523 47.8067 92.2427V93.0921C47.8067 93.4407 47.6832 93.7092 47.4364 93.8977C47.1902 94.0791 46.8274 94.1699 46.3479 94.1699V92.3088C46.3479 91.924 46.2718 91.6409 46.1196 91.4595C45.9673 91.278 45.7351 91.1873 45.4228 91.1873H43.2352V93.0921C43.2352 93.4478 43.1118 93.7163 42.865 93.8977C42.6259 94.0791 42.2705 94.1699 41.7989 94.1699ZM43.2352 89.9463H45.3577C45.7062 89.9463 45.9748 89.8485 46.1633 89.6528C46.3518 89.4494 46.4461 89.1663 46.4461 88.8035C46.4461 88.0636 46.0833 87.6937 45.3577 87.6937H43.2352V89.9463ZM54.3596 94.1689C53.7143 94.1689 53.1377 94.0458 52.6298 93.7996C52.129 93.5527 51.737 93.2081 51.4539 92.7656C51.1707 92.3224 51.0292 91.8181 51.0292 91.2525V89.2495C51.0292 88.6833 51.1672 88.1825 51.4432 87.7471C51.7263 87.3046 52.1144 86.9638 52.6074 86.7248C53.1011 86.4779 53.667 86.3545 54.3052 86.3545C54.944 86.3545 55.5102 86.4523 56.0039 86.648C56.5041 86.8365 56.8922 87.1051 57.1682 87.4536C57.4442 87.7944 57.5822 88.1864 57.5822 88.6295C57.5822 88.8977 57.4915 89.1115 57.31 89.2709C57.1358 89.4238 56.8999 89.5003 56.6026 89.5003C56.4574 89.5003 56.2977 89.4782 56.1235 89.4342C56.1377 89.2606 56.1448 89.0902 56.1448 88.923C56.1448 88.5382 55.9744 88.2262 55.6337 87.9871C55.2922 87.7474 54.8494 87.6276 54.3052 87.6276C53.7687 87.6276 53.3298 87.7802 52.9884 88.0853C52.6547 88.3827 52.4879 88.7708 52.4879 89.2495V91.2525C52.4879 91.7384 52.6622 92.1339 53.0107 92.439C53.3586 92.7435 53.8083 92.8958 54.3596 92.8958C54.9038 92.8958 55.3467 92.7759 55.6881 92.5362C56.0289 92.2972 56.1993 91.9888 56.1993 91.6111C56.1993 91.4374 56.1921 91.2706 56.1779 91.1106C56.3593 91.0743 56.5115 91.0561 56.6346 91.0561C56.9398 91.0561 57.1831 91.1362 57.3645 91.2962C57.5459 91.4556 57.6366 91.6733 57.6366 91.9493C57.6366 92.3769 57.4986 92.7614 57.2226 93.1028C56.9466 93.4365 56.5585 93.6975 56.0583 93.8861C55.5647 94.0746 54.9984 94.1689 54.3596 94.1689ZM60.8465 93.407V87.1164C60.8465 86.935 60.9155 86.7789 61.0535 86.648C61.1986 86.5178 61.3726 86.4526 61.5754 86.4526H66.4296C66.4296 86.888 66.3535 87.2071 66.2012 87.4099C66.0561 87.6062 65.8167 87.7043 65.483 87.7043H62.3052V89.5974H65.2002C65.2002 90.0328 65.1241 90.3522 64.9719 90.5557C64.8267 90.7513 64.587 90.8491 64.2527 90.8491H62.3052V92.82H65.7114C66.0379 92.82 66.2738 92.9214 66.4189 93.1242C66.5711 93.3205 66.6473 93.6363 66.6473 94.0717H61.5754C61.3726 94.0717 61.1986 94.0098 61.0535 93.8861C60.9155 93.7559 60.8465 93.5962 60.8465 93.407ZM69.8844 94.1689V87.1164C69.8844 86.9279 69.9534 86.7717 70.0914 86.648C70.2287 86.5178 70.4027 86.4526 70.6133 86.4526H73.52C74.3032 86.4526 74.909 86.6593 75.3373 87.0727C75.7726 87.486 75.9903 88.0665 75.9903 88.8142C75.9903 89.2424 75.9032 89.6052 75.7289 89.9026C75.5546 90.1928 75.29 90.4251 74.9349 90.5994V90.6315C75.5731 90.9146 75.8922 91.4517 75.8922 92.2427V93.0921C75.8922 93.44 75.7687 93.7082 75.5219 93.8968C75.2757 94.0782 74.9129 94.1689 74.4335 94.1689V92.3078C74.4335 91.9237 74.3573 91.6409 74.2051 91.4595C74.0528 91.278 73.8206 91.1873 73.5083 91.1873H71.3207V93.0921C71.3207 93.4471 71.1973 93.7154 70.9505 93.8968C70.7114 94.0782 70.356 94.1689 69.8844 94.1689ZM71.3207 89.9463H73.4432C73.7917 89.9463 74.0603 89.8482 74.2488 89.6519C74.4374 89.4491 74.5316 89.1663 74.5316 88.8035C74.5316 88.063 74.1688 87.6927 73.4432 87.6927H71.3207V89.9463ZM82.3042 94.1699C81.6512 94.1699 81.0813 94.0902 80.5948 93.9308C80.1089 93.7708 79.7354 93.5456 79.4743 93.2554C79.2203 92.958 79.0933 92.6133 79.0933 92.2214C79.0933 91.6266 79.496 91.3292 80.3013 91.3292C80.3305 91.8806 80.5154 92.2978 80.8562 92.5809C81.2048 92.8641 81.691 93.0056 82.3149 93.0056C82.83 93.0056 83.2291 92.9185 83.5122 92.7442C83.7953 92.5628 83.9369 92.3124 83.9369 91.993C83.9369 91.7824 83.8825 91.612 83.7736 91.4818C83.6648 91.3438 83.4798 91.224 83.2187 91.1222C82.9569 91.0134 82.576 90.9045 82.0758 90.7957C81.3645 90.6286 80.8021 90.4436 80.3888 90.2408C79.9819 90.0374 79.6878 89.7941 79.5064 89.511C79.325 89.2207 79.2342 88.8618 79.2342 88.4342C79.2342 88.0202 79.3541 87.6574 79.5938 87.3458C79.8407 87.0335 80.1853 86.7902 80.6278 86.6159C81.0775 86.4416 81.5925 86.3545 82.173 86.3545C82.7321 86.3545 83.2294 86.4309 83.6648 86.5838C84.1073 86.729 84.4519 86.9356 84.6988 87.2039C84.9528 87.4721 85.0797 87.7805 85.0797 88.129C85.0797 88.6661 84.6913 88.9454 83.9145 88.9667C83.8711 88.4666 83.7117 88.1002 83.4364 87.8676C83.1604 87.6357 82.7393 87.5197 82.173 87.5197C81.6871 87.5197 81.3136 87.5994 81.0525 87.7588C80.7914 87.9188 80.6609 88.1439 80.6609 88.4342C80.6609 88.637 80.7114 88.8074 80.8125 88.9454C80.9142 89.0762 81.0849 89.1922 81.3246 89.2933C81.5637 89.3879 81.9048 89.486 82.3479 89.5877C83.095 89.7542 83.6861 89.9428 84.1215 90.1533C84.5569 90.3568 84.8727 90.6072 85.069 90.9045C85.2647 91.1948 85.3625 91.554 85.3625 91.9823C85.3625 92.4248 85.2355 92.8129 84.9816 93.1465C84.7347 93.4731 84.379 93.727 83.9145 93.9084C83.4578 94.0827 82.921 94.1699 82.3042 94.1699Z" fill="url(#paint16_linear_64_62)"/>
</g>
<defs>
<linearGradient id="paint0_linear_64_62" x1="30.915" y1="20.2382" x2="35.3511" y2="20.2382" gradientUnits="userSpaceOnUse">
<stop stop-color="#492CD4"/>
<stop offset="1" stop-color="#462CBD"/>
</linearGradient>
<linearGradient id="paint1_linear_64_62" x1="37.8676" y1="5.34703" x2="64.6689" y2="5.34703" gradientUnits="userSpaceOnUse">
<stop stop-color="#492CD4"/>
<stop offset="1" stop-color="#462CBD"/>
</linearGradient>
<linearGradient id="paint2_linear_64_62" x1="37.5407" y1="16.9151" x2="65.5025" y2="16.9151" gradientUnits="userSpaceOnUse">
<stop stop-color="#492CD4"/>
<stop offset="1" stop-color="#462CBD"/>
</linearGradient>
<linearGradient id="paint3_linear_64_62" x1="71.6646" y1="20.1984" x2="83.217" y2="20.1984" gradientUnits="userSpaceOnUse">
<stop stop-color="#492CD4"/>
<stop offset="1" stop-color="#462CBD"/>
</linearGradient>
<linearGradient id="paint4_linear_64_62" x1="70.8969" y1="27.8631" x2="79.9138" y2="27.8631" gradientUnits="userSpaceOnUse">
<stop stop-color="#492CD4"/>
<stop offset="1" stop-color="#462CBD"/>
</linearGradient>
<linearGradient id="paint5_linear_64_62" x1="53.7813" y1="30.8354" x2="69.2459" y2="30.8354" gradientUnits="userSpaceOnUse">
<stop stop-color="#492CD4"/>
<stop offset="1" stop-color="#462CBD"/>
</linearGradient>
<linearGradient id="paint6_linear_64_62" x1="42.1883" y1="56.5753" x2="46.9922" y2="56.5753" gradientUnits="userSpaceOnUse">
<stop stop-color="#492CD4"/>
<stop offset="1" stop-color="#462CBD"/>
</linearGradient>
<linearGradient id="paint7_linear_64_62" x1="28.3296" y1="29.8594" x2="40.7884" y2="29.8594" gradientUnits="userSpaceOnUse">
<stop stop-color="#492CD4"/>
<stop offset="1" stop-color="#462CBD"/>
</linearGradient>
<linearGradient id="paint8_linear_64_62" x1="10.3215" y1="1.30063" x2="86.0468" y2="1.30063" gradientUnits="userSpaceOnUse">
<stop stop-color="#492CD4"/>
<stop offset="1" stop-color="#462CBD"/>
</linearGradient>
<linearGradient id="paint9_linear_64_62" x1="14.7075" y1="20.5127" x2="90.6404" y2="20.5127" gradientUnits="userSpaceOnUse">
<stop stop-color="#492CD4"/>
<stop offset="1" stop-color="#462CBD"/>
</linearGradient>
<linearGradient id="paint10_linear_64_62" x1="31.0125" y1="13.2333" x2="36.649" y2="13.2333" gradientUnits="userSpaceOnUse">
<stop stop-color="#492CD4"/>
<stop offset="1" stop-color="#462CBD"/>
</linearGradient>
<linearGradient id="paint11_linear_64_62" x1="65.3176" y1="20.2304" x2="70.9541" y2="20.2304" gradientUnits="userSpaceOnUse">
<stop stop-color="#492CD4"/>
<stop offset="1" stop-color="#462CBD"/>
</linearGradient>
<linearGradient id="paint12_linear_64_62" x1="81.1583" y1="29.7538" x2="86.7948" y2="29.7538" gradientUnits="userSpaceOnUse">
<stop stop-color="#492CD4"/>
<stop offset="1" stop-color="#462CBD"/>
</linearGradient>
<linearGradient id="paint13_linear_64_62" x1="43.9375" y1="48.996" x2="49.5741" y2="48.996" gradientUnits="userSpaceOnUse">
<stop stop-color="#492CD4"/>
<stop offset="1" stop-color="#462CBD"/>
</linearGradient>
<linearGradient id="paint14_linear_64_62" x1="36.5518" y1="52.9804" x2="42.1883" y2="52.9804" gradientUnits="userSpaceOnUse">
<stop stop-color="#492CD4"/>
<stop offset="1" stop-color="#462CBD"/>
</linearGradient>
<linearGradient id="paint15_linear_64_62" x1="0.602539" y1="70.137" x2="99.4243" y2="70.137" gradientUnits="userSpaceOnUse">
<stop stop-color="#492CD4"/>
<stop offset="1" stop-color="#462CBD"/>
</linearGradient>
<linearGradient id="paint16_linear_64_62" x1="13.1067" y1="86.3547" x2="85.3625" y2="86.3547" gradientUnits="userSpaceOnUse">
<stop stop-color="#492CD4"/>
<stop offset="1" stop-color="#462CBD"/>
</linearGradient>
<clipPath id="clip0_64_62">
<rect width="100" height="95.4325" fill="white"/>
</clipPath>
</defs>
</svg>
